<svg width="1400" height="900" viewBox="0 0 1400 900" fill="none" xmlns="http://www.w3.org/2000/svg">
  <defs>
    <linearGradient id="seminar-bg" x1="700" y1="0" x2="700" y2="900" gradientUnits="userSpaceOnUse">
      <stop stop-color="#0D2034" />
      <stop offset="1" stop-color="#07101C" />
    </linearGradient>
    <linearGradient id="seminar-glow" x1="152" y1="108" x2="1120" y2="660" gradientUnits="userSpaceOnUse">
      <stop stop-color="#19D3C5" stop-opacity="0.82" />
      <stop offset="0.52" stop-color="#2C8CFF" stop-opacity="0.68" />
      <stop offset="1" stop-color="#FFD166" stop-opacity="0.62" />
    </linearGradient>
    <linearGradient id="door-light" x1="1088" y1="144" x2="1088" y2="708" gradientUnits="userSpaceOnUse">
      <stop stop-color="#F7E2B8" />
      <stop offset="1" stop-color="#D18E41" />
    </linearGradient>
  </defs>

  <rect width="1400" height="900" fill="url(#seminar-bg)" />
  <circle cx="210" cy="162" r="220" fill="#19D3C5" fill-opacity="0.2" />
  <circle cx="1182" cy="130" r="160" fill="#FFD166" fill-opacity="0.2" />
  <circle cx="1084" cy="766" r="240" fill="#2C8CFF" fill-opacity="0.16" />

  <rect x="92" y="106" width="564" height="256" rx="42" fill="#EEF8FF" fill-opacity="0.94" />
  <rect x="120" y="136" width="508" height="196" rx="26" fill="#FCFEFF" />
  <text x="146" y="224" fill="#113760" font-family="Avenir Next, Segoe UI, sans-serif" font-size="64" font-weight="700">Room 204</text>
  <text x="146" y="282" fill="#4F677E" font-family="Avenir Next, Segoe UI, sans-serif" font-size="34" font-weight="600">Final Seminar</text>
  <line x1="148" y1="242" x2="390" y2="242" stroke="#75A7DB" stroke-width="6" stroke-linecap="round" />

  <rect x="360" y="534" width="644" height="170" rx="40" fill="#6A4426" />
  <rect x="596" y="430" width="226" height="104" rx="18" fill="#16233A" />
  <rect x="620" y="452" width="178" height="62" rx="12" fill="#0A1321" />
  <rect x="696" y="532" width="24" height="62" rx="12" fill="#304159" />
  <rect x="900" y="456" width="96" height="88" rx="22" fill="#233347" />
  <circle cx="930" cy="500" r="18" fill="#A5B8D0" fill-opacity="0.25" />
  <circle cx="970" cy="500" r="18" fill="#A5B8D0" fill-opacity="0.25" />

  <rect x="1002" y="136" width="188" height="572" rx="46" fill="url(#door-light)" />
  <rect x="1040" y="192" width="118" height="132" rx="18" fill="#0B1625" fill-opacity="0.18" />
  <circle cx="1090" cy="430" r="18" fill="#FFF0C2" />

  <path d="M170 610C122 626 98 680 112 752C170 738 210 690 214 620C198 606 188 604 170 610Z" fill="url(#seminar-glow)" fill-opacity="0.56" />

  <g opacity="0.32">
    <line x1="0" y1="498" x2="1400" y2="498" stroke="white" stroke-width="4" />
    <line x1="0" y1="566" x2="1400" y2="566" stroke="#B47B46" stroke-opacity="0.4" stroke-width="3" />
  </g>
</svg>
